<?xml version="1.0" encoding="UTF-8"?>
<svg version="1.1" xmlns="http://www.w3.org/2000/svg" width="512" height="512">
<path d="M0 0 C0.65298752 -0.00235223 1.30597503 -0.00470446 1.97875005 -0.00712797 C4.17009813 -0.01379283 6.36138657 -0.01336051 8.55274391 -0.01294994 C10.13854265 -0.01625015 11.72434056 -0.01997605 13.31013739 -0.02409142 C17.6708902 -0.03410199 22.03162925 -0.03782671 26.39239192 -0.04048073 C31.09475396 -0.04438667 35.79710513 -0.05396491 40.49946022 -0.0626936 C51.85831785 -0.0824514 63.21717636 -0.09252404 74.57604688 -0.10142139 C79.92767135 -0.10580602 85.27929482 -0.11117243 90.6309185 -0.11641026 C108.42603729 -0.13342301 126.22115546 -0.14791607 144.01628113 -0.155159 C148.63371087 -0.15706884 153.25114061 -0.15898918 157.86857033 -0.16094494 C159.01618547 -0.16142868 160.1638006 -0.16191242 161.34619196 -0.16241082 C179.92703503 -0.17070693 198.50781364 -0.19603659 217.08862858 -0.22852562 C236.17364002 -0.26162357 255.25861875 -0.27961029 274.34365904 -0.28280324 C285.0556816 -0.28496596 295.76761018 -0.29367967 306.47960472 -0.31926441 C315.60474783 -0.34100891 324.72977414 -0.34900345 333.85494022 -0.33929763 C338.5069367 -0.3347636 343.15869239 -0.33658671 347.81065559 -0.35605907 C352.078453 -0.37376824 356.34583535 -0.37263073 360.61363764 -0.35716178 C362.14874327 -0.35479739 363.68387823 -0.35904786 365.21893923 -0.37099043 C387.34146545 -0.53228982 405.61672408 6.72372875 421.57413673 22.25140858 C433.38940868 34.77789107 441.50579189 51.32618709 441.53257656 68.73586559 C441.53492879 69.38885311 441.53728102 70.04184063 441.53970453 70.71461564 C441.54636939 72.90596372 441.54593707 75.09725216 441.5455265 77.2886095 C441.54882671 78.87440825 441.55255261 80.46020615 441.55666798 82.04600298 C441.56667855 86.40675579 441.57040327 90.76749484 441.57305729 95.12825751 C441.57696323 99.83061955 441.58654147 104.53297072 441.59527016 109.23532581 C441.61502796 120.59418344 441.62510061 131.95304196 441.63399795 143.31191248 C441.63838258 148.66353694 441.643749 154.01516041 441.64898682 159.3667841 C441.66599957 177.16190288 441.68049263 194.95702105 441.68773556 212.75214672 C441.6896454 217.36957646 441.69156574 221.9870062 441.6935215 226.60443592 C441.69400524 227.75205106 441.69448898 228.8996662 441.69498738 230.08205755 C441.70328349 248.66290062 441.72861315 267.24367923 441.76110218 285.82449417 C441.79420013 304.90950562 441.81218686 323.99448434 441.8153798 343.07952464 C441.81754252 353.79154719 441.82625623 364.50347577 441.85184097 375.21547031 C441.87358547 384.34061342 441.88158001 393.46563974 441.87187419 402.59080581 C441.86734016 407.24280229 441.86916327 411.89455799 441.88863564 416.54652119 C441.9063448 420.81431859 441.90520729 425.08170095 441.88973834 429.34950323 C441.88737395 430.88460886 441.89162442 432.41974383 441.90356699 433.95480482 C442.06486638 456.07733104 434.80884781 474.35258967 419.28116798 490.31000233 C406.75468549 502.12527427 390.20638947 510.24165748 372.79671097 510.26844215 C372.14372345 510.27079438 371.49073593 510.27314661 370.81796092 510.27557012 C368.62661284 510.28223498 366.4353244 510.28180266 364.24396706 510.2813921 C362.65816832 510.28469231 361.07237041 510.28841821 359.48657358 510.29253358 C355.12582077 510.30254414 350.76508172 510.30626886 346.40431905 510.30892289 C341.70195701 510.31282882 336.99960584 510.32240706 332.29725075 510.33113575 C320.93839312 510.35089355 309.5795346 510.3609662 298.22066408 510.36986354 C292.86903962 510.37424818 287.51741615 510.37961459 282.16579247 510.38485241 C264.37067368 510.40186516 246.57555551 510.41635822 228.78042984 510.42360115 C224.1630001 510.42551099 219.54557036 510.42743133 214.92814064 510.42938709 C213.7805255 510.42987083 212.63291036 510.43035457 211.45051901 510.43085297 C192.86967594 510.43914909 174.28889733 510.46447874 155.70808239 510.49696777 C136.62307094 510.53006573 117.53809222 510.54805245 98.45305192 510.55124539 C87.74102937 510.55340811 77.02910079 510.56212182 66.31710625 510.58770657 C57.19196314 510.60945106 48.06693682 510.6174456 38.94177075 510.60773978 C34.28977427 510.60320575 29.63801858 510.60502887 24.98605537 510.62450123 C20.71825797 510.64221039 16.45087562 510.64107288 12.18307333 510.62560394 C10.6479677 510.62323954 9.11283273 510.62749001 7.57777174 510.63943259 C-14.54475448 510.80073198 -32.82001311 503.5447134 -48.77742577 488.01703358 C-60.59269771 475.49055109 -68.70908092 458.94225506 -68.73586559 441.53257656 C-68.73821782 440.87958904 -68.74057005 440.22660153 -68.74299356 439.55382651 C-68.74965842 437.36247843 -68.7492261 435.17118999 -68.74881554 432.97983265 C-68.75211574 431.39403391 -68.75584164 429.80823601 -68.75995702 428.22243917 C-68.76996758 423.86168636 -68.7736923 419.50094731 -68.77634633 415.14018464 C-68.78025226 410.4378226 -68.7898305 405.73547143 -68.79855919 401.03311634 C-68.81831699 389.67425871 -68.82838964 378.3154002 -68.83728698 366.95652968 C-68.84167161 361.60490521 -68.84703803 356.25328174 -68.85227585 350.90165806 C-68.8692886 333.10653927 -68.88378166 315.3114211 -68.89102459 297.51629543 C-68.89293443 292.89886569 -68.89485477 288.28143596 -68.89681053 283.66400623 C-68.89729427 282.5163911 -68.89777801 281.36877596 -68.89827641 280.1863846 C-68.90657253 261.60554153 -68.93190218 243.02476292 -68.96439121 224.44394799 C-68.99748916 205.35893654 -69.01547589 186.27395781 -69.01866883 167.18891752 C-69.02083155 156.47689497 -69.02954526 145.76496638 -69.05513 135.05297184 C-69.0768745 125.92782873 -69.08486904 116.80280242 -69.07516322 107.67763634 C-69.07062919 103.02563986 -69.0724523 98.37388417 -69.09192467 93.72192097 C-69.10963383 89.45412356 -69.10849632 85.18674121 -69.09302738 80.91893892 C-69.09066298 79.38383329 -69.09491345 77.84869833 -69.10685603 76.31363733 C-69.26815542 54.19111111 -62.01213684 35.91585249 -46.48445702 19.95843983 C-33.95797453 8.14316788 -17.4096785 0.02678467 0 0 Z " fill="#4E4E88" transform="translate(69.60164451599121,0.865778923034668)"/>
<path d="M0 0 C3.15165348 2.77645664 5.73811814 5.53873629 7.625 9.3125 C7.531573 11.76269853 7.37855688 14.18212241 7.1875 16.625 C5.08048556 48.57450005 9.8470343 76.48892183 26.625 104.3125 C27.16882324 105.25343506 27.16882324 105.25343506 27.72363281 106.21337891 C39.75691203 126.71710089 65.43314691 137.18847106 87.47265625 143.375 C88.85459177 143.69699945 90.23893246 144.0087794 91.625 144.3125 C92.42244629 144.50303955 93.21989258 144.6935791 94.04150391 144.88989258 C100.64956851 146.25196304 106.99215835 146.40475283 113.703125 146.26171875 C114.60606796 146.24376251 115.50901093 146.22580627 116.4393158 146.20730591 C120.20598645 146.12488097 123.97127858 146.03338834 127.73632812 145.89428711 C145.69070078 145.26650106 145.69070078 145.26650106 150.82421875 149.68359375 C153.69790896 152.99693657 155.67242801 155.72293072 155.58959961 160.24536133 C155.09089728 166.1355105 153.5018232 170.49510554 150.625 175.625 C150.22345703 176.35920166 149.82191406 177.09340332 149.40820312 177.84985352 C143.50112491 188.40034676 135.9580921 197.57529473 127.625 206.3125 C127.11283936 206.85382568 126.60067871 207.39515137 126.07299805 207.95288086 C105.84703225 228.83711355 73.73824788 242.62740607 44.734375 243.515625 C6.89993458 244.07673647 -24.77246563 232.31896946 -52.375 206.3125 C-53.05046875 205.70148438 -53.7259375 205.09046875 -54.421875 204.4609375 C-72.93584625 187.05780452 -83.09417562 162.70082336 -88.375 138.3125 C-88.5507959 137.57612305 -88.7265918 136.83974609 -88.90771484 136.08105469 C-89.49481003 132.60265371 -89.5566442 129.17733246 -89.578125 125.66015625 C-89.58667511 124.55528114 -89.58667511 124.55528114 -89.59539795 123.42808533 C-89.60481994 121.86898214 -89.61137077 120.30985929 -89.61523438 118.75073242 C-89.62484165 116.41352377 -89.65584876 114.07723332 -89.6875 111.74023438 C-89.75493017 102.15375277 -88.82106294 93.62621367 -86.375 84.3125 C-86.08512207 83.13059082 -85.79524414 81.94868164 -85.49658203 80.73095703 C-77.16359751 47.45433748 -53.56109965 21.44246116 -24.9375 3.875 C-16.80983544 -0.7901473 -9.00106298 -4.50053149 0 0 Z " fill="#E7E2EF" transform="translate(219.375,74.6875)"/>
<path d="M0 0 C0.64861897 -0.00085442 1.29723794 -0.00170885 1.96551204 -0.00258917 C4.13660246 -0.00423489 6.30761544 0.00126253 8.47869873 0.00672913 C10.03591917 0.00701122 11.59313974 0.00685283 13.15036011 0.00628662 C17.3772728 0.00599951 21.60415716 0.01188232 25.83106327 0.01886058 C30.24866149 0.02510846 34.66626035 0.02569905 39.0838623 0.02688599 C47.44898684 0.02999506 55.81409832 0.03820276 64.1792171 0.04823548 C73.70270608 0.05940974 83.22619568 0.06491038 92.74968958 0.06993091 C112.34003065 0.08038571 131.93035996 0.09797698 151.52069092 0.12025452 C149.86662368 1.22296601 148.2032897 2.31340177 146.50506592 3.34681702 C139.33477799 7.8345147 132.56828536 13.37797045 129.96209717 21.73744202 C128.06096821 32.00017358 129.23974613 41.09024206 134.52069092 50.12025452 C139.07791128 56.5595477 145.32855766 59.29802501 152.52069092 62.12025452 C152.52069092 62.45025452 152.52069092 62.78025452 152.52069092 63.12025452 C131.94514655 63.21378324 111.36963735 63.28427556 90.79392338 63.3275032 C81.23980151 63.34810993 71.68581188 63.37619436 62.1317749 63.42201233 C53.80242476 63.46193799 45.47317042 63.48770106 37.14372724 63.4966085 C32.73516854 63.50181356 28.32688386 63.51400778 23.91841316 63.54317474 C19.76433711 63.57043451 15.61064656 63.57867832 11.45648956 63.57268524 C9.93638193 63.57378078 8.41626067 63.58167175 6.8962307 63.59707642 C-1.31099586 63.67613421 -8.28173762 63.45810468 -15.47930908 59.12025452 C-16.1305371 58.74193607 -16.78176512 58.36361763 -17.45272732 57.97383499 C-24.30527445 53.8118089 -28.42682912 46.72099081 -30.47930908 39.12025452 C-31.55693004 27.84282593 -30.44408014 18.75640993 -23.29180908 9.80775452 C-16.72922789 2.82086851 -9.41620531 -0.00747318 0 0 Z " fill="#363671" transform="translate(175.47930908203125,383.87974548339844)"/>
<path d="M0 0 C7.62752155 4.62854988 12.89880536 10.57752583 15.78125 19.11328125 C17.59139136 29.23931954 17.07062094 38.69953538 11.17578125 47.3203125 C10.55703125 48.2484375 9.93828125 49.1765625 9.30078125 50.1328125 C2.32967616 57.30895009 -5.1083121 60.43536363 -15.07421875 60.8828125 C-24.45487455 60.67726028 -31.73392938 57.34651739 -38.76171875 51.1953125 C-45.53955203 43.60347474 -47.65515538 34.55409918 -47.23828125 24.58203125 C-46.17298941 16.19034553 -41.95532936 10.00921825 -35.82421875 4.3203125 C-25.46349023 -3.60969601 -12.13314573 -5.83206669 0 0 Z " fill="#52E061" transform="translate(350.82421875,386.6796875)"/>
</svg>
