<?xml version="1.0" encoding="UTF-8"?>
<svg version="1.1" xmlns="http://www.w3.org/2000/svg" width="512" height="512">
<path d="M0 0 C20.13 0 40.26 0 61 0 C61 9.9 61 19.8 61 30 C70.9 30 80.8 30 91 30 C91 20.1 91 10.2 91 0 C140.83 0 190.66 0 242 0 C242 9.9 242 19.8 242 30 C251.9 30 261.8 30 272 30 C272 40.23 272 50.46 272 61 C262.1 61 252.2 61 242 61 C242 70.57 242 80.14 242 90 C251.9 90 261.8 90 272 90 C272 99.9 272 109.8 272 120 C281.9 120 291.8 120 302 120 C302 139.8 302 159.6 302 180 C311.9 180 321.8 180 332 180 C332 230.16 332 280.32 332 332 C322.1 332 312.2 332 302 332 C302 351.8 302 371.6 302 392 C292.1 392 282.2 392 272 392 C272 401.9 272 411.8 272 422 C262.1 422 252.2 422 242 422 C242 431.9 242 441.8 242 452 C232.1 452 222.2 452 212 452 C212 461.9 212 471.8 212 482 C202.1 482 192.2 482 182 482 C182 491.9 182 501.8 182 512 C92.24 512 2.48 512 -90 512 C-90 502.1 -90 492.2 -90 482 C-99.9 482 -109.8 482 -120 482 C-120 471.77 -120 461.54 -120 451 C-110.1 451 -100.2 451 -90 451 C-90 441.43 -90 431.86 -90 422 C-99.9 422 -109.8 422 -120 422 C-120 412.1 -120 402.2 -120 392 C-129.9 392 -139.8 392 -150 392 C-150 382.1 -150 372.2 -150 362 C-159.9 362 -169.8 362 -180 362 C-180 351.77 -180 341.54 -180 331 C-170.1 331 -160.2 331 -150 331 C-150 321.43 -150 311.86 -150 302 C-159.9 302 -169.8 302 -180 302 C-180 261.74 -180 221.48 -180 180 C-170.1 180 -160.2 180 -150 180 C-150 160.2 -150 140.4 -150 120 C-140.1 120 -130.2 120 -120 120 C-120 110.1 -120 100.2 -120 90 C-110.1 90 -100.2 90 -90 90 C-90 80.1 -90 70.2 -90 60 C-80.1 60 -70.2 60 -60 60 C-60 50.1 -60 40.2 -60 30 C-40.2 30 -20.4 30 0 30 C0 20.1 0 10.2 0 0 Z " fill="#F9DE00" transform="translate(180,0)"/>
<path d="M0 0 C49.83 0 99.66 0 151 0 C151 9.9 151 19.8 151 30 C160.9 30 170.8 30 181 30 C181 40.23 181 50.46 181 61 C171.1 61 161.2 61 151 61 C151 70.57 151 80.14 151 90 C160.9 90 170.8 90 181 90 C181 99.9 181 109.8 181 120 C190.9 120 200.8 120 211 120 C211 139.8 211 159.6 211 180 C220.9 180 230.8 180 241 180 C241 230.16 241 280.32 241 332 C231.1 332 221.2 332 211 332 C211 351.8 211 371.6 211 392 C201.1 392 191.2 392 181 392 C181 401.9 181 411.8 181 422 C171.1 422 161.2 422 151 422 C151 431.9 151 441.8 151 452 C141.1 452 131.2 452 121 452 C121 461.9 121 471.8 121 482 C111.1 482 101.2 482 91 482 C91 491.9 91 501.8 91 512 C1.24 512 -88.52 512 -181 512 C-181 502.1 -181 492.2 -181 482 C-190.9 482 -200.8 482 -211 482 C-211 471.77 -211 461.54 -211 451 C-201.1 451 -191.2 451 -181 451 C-181 441.43 -181 431.86 -181 422 C-190.9 422 -200.8 422 -211 422 C-211 412.1 -211 402.2 -211 392 C-220.9 392 -230.8 392 -241 392 C-241 382.1 -241 372.2 -241 362 C-250.9 362 -260.8 362 -271 362 C-271 351.77 -271 341.54 -271 331 C-261.1 331 -251.2 331 -241 331 C-241 321.43 -241 311.86 -241 302 C-250.9 302 -260.8 302 -271 302 C-271 261.74 -271 221.48 -271 180 C-261.1 180 -251.2 180 -241 180 C-241 160.2 -241 140.4 -241 120 C-231.1 120 -221.2 120 -211 120 C-211 140.13 -211 160.26 -211 181 C-220.9 181 -230.8 181 -241 181 C-241 220.6 -241 260.2 -241 301 C-141.67 301 -42.34 301 60 301 C60 320.8 60 340.6 60 361 C40.2 361 20.4 361 0 361 C0 371.23 0 381.46 0 392 C-9.9 392 -19.8 392 -30 392 C-30 401.9 -30 411.8 -30 422 C19.5 421.67 69 421.34 120 421 C120.33 411.43 120.66 401.86 121 392 C125.16625 391.835 129.3325 391.67 133.625 391.5 C134.86588379 391.44779297 136.10676758 391.39558594 137.38525391 391.34179688 C151.60907011 390.81799128 165.7294769 391 180 391 C180 371.2 180 351.4 180 331 C190.23 331 200.46 331 211 331 C211 281.5 211 232 211 181 C191.2 181 171.4 181 151 181 C151 170.77 151 160.54 151 150 C141.1 150 131.2 150 121 150 C121 140.1 121 130.2 121 120 C81.07 120 41.14 120 0 120 C0 110.1 0 100.2 0 90 C-9.9 90 -19.8 90 -30 90 C-30 70.2 -30 50.4 -30 30 C-20.1 30 -10.2 30 0 30 C0 20.1 0 10.2 0 0 Z " fill="#E6F1FF" transform="translate(271,0)"/>
<path d="M0 0 C49.83 0 99.66 0 151 0 C151 9.9 151 19.8 151 30 C160.9 30 170.8 30 181 30 C181 40.23 181 50.46 181 61 C171.1 61 161.2 61 151 61 C151 70.57 151 80.14 151 90 C160.9 90 170.8 90 181 90 C181 99.9 181 109.8 181 120 C190.9 120 200.8 120 211 120 C211 139.8 211 159.6 211 180 C220.9 180 230.8 180 241 180 C241 230.16 241 280.32 241 332 C231.1 332 221.2 332 211 332 C211 351.8 211 371.6 211 392 C201.1 392 191.2 392 181 392 C181 401.9 181 411.8 181 422 C171.1 422 161.2 422 151 422 C151 431.9 151 441.8 151 452 C141.1 452 131.2 452 121 452 C121 461.9 121 471.8 121 482 C111.1 482 101.2 482 91 482 C91 472.1 91 462.2 91 452 C60.97 452 30.94 452 0 452 C0 442.1 0 432.2 0 422 C39.6 421.67 79.2 421.34 120 421 C120.33 411.43 120.66 401.86 121 392 C125.16625 391.835 129.3325 391.67 133.625 391.5 C134.86588379 391.44779297 136.10676758 391.39558594 137.38525391 391.34179688 C151.60907011 390.81799128 165.7294769 391 180 391 C180 371.2 180 351.4 180 331 C190.23 331 200.46 331 211 331 C211 281.5 211 232 211 181 C191.2 181 171.4 181 151 181 C151 170.77 151 160.54 151 150 C141.1 150 131.2 150 121 150 C121 140.1 121 130.2 121 120 C81.07 120 41.14 120 0 120 C0 110.1 0 100.2 0 90 C-9.9 90 -19.8 90 -30 90 C-30 70.2 -30 50.4 -30 30 C-20.1 30 -10.2 30 0 30 C0 20.1 0 10.2 0 0 Z " fill="#FD9D00" transform="translate(271,0)"/>
<path d="M0 0 C9.9 0 19.8 0 30 0 C30 20.13 30 40.26 30 61 C20.1 61 10.2 61 0 61 C0 100.6 0 140.2 0 181 C99.33 181 198.66 181 301 181 C301 190.9 301 200.8 301 211 C201.67 211 102.34 211 0 211 C0 201.43 0 191.86 0 182 C-9.9 182 -19.8 182 -30 182 C-30 141.74 -30 101.48 -30 60 C-20.1 60 -10.2 60 0 60 C0 40.2 0 20.4 0 0 Z " fill="#010000" transform="translate(30,120)"/>
<path d="M0 0 C9.9 0 19.8 0 30 0 C30 9.9 30 19.8 30 30 C79.83 30 129.66 30 181 30 C181 39.9 181 49.8 181 60 C190.9 60 200.8 60 211 60 C211 70.23 211 80.46 211 91 C201.1 91 191.2 91 181 91 C181 100.9 181 110.8 181 121 C150.97 121 120.94 121 90 121 C90 130.9 90 140.8 90 151 C80.1 151 70.2 151 60 151 C60 140.77 60 130.54 60 120 C69.9 120 79.8 120 90 120 C90 110.43 90 100.86 90 91 C80.1 91 70.2 91 60 91 C60 81.1 60 71.2 60 61 C50.1 61 40.2 61 30 61 C30 51.1 30 41.2 30 31 C20.1 31 10.2 31 0 31 C0 20.77 0 10.54 0 0 Z " fill="#020202" transform="translate(0,331)"/>
<path d="M0 0 C9.9 0 19.8 0 30 0 C30 50.16 30 100.32 30 152 C20.1 152 10.2 152 0 152 C0 171.8 0 191.6 0 212 C-9.9 212 -19.8 212 -30 212 C-30 221.9 -30 231.8 -30 242 C-39.9 242 -49.8 242 -60 242 C-60 251.9 -60 261.8 -60 272 C-69.9 272 -79.8 272 -90 272 C-90 281.9 -90 291.8 -90 302 C-99.9 302 -109.8 302 -120 302 C-120 292.1 -120 282.2 -120 272 C-150.03 272 -180.06 272 -211 272 C-211 262.1 -211 252.2 -211 242 C-171.4 241.67 -131.8 241.34 -91 241 C-90.67 231.43 -90.34 221.86 -90 212 C-85.83375 211.835 -81.6675 211.67 -77.375 211.5 C-76.13411621 211.44779297 -74.89323242 211.39558594 -73.61474609 211.34179688 C-59.39092989 210.81799128 -45.2705231 211 -31 211 C-31 191.2 -31 171.4 -31 151 C-20.77 151 -10.54 151 0 151 C0 101.17 0 51.34 0 0 Z " fill="#F89C00" transform="translate(482,180)"/>
<path d="M0 0 C99.33 0 198.66 0 301 0 C301 9.9 301 19.8 301 30 C281.2 30 261.4 30 241 30 C241 40.23 241 50.46 241 61 C231.1 61 221.2 61 211 61 C211 70.9 211 80.8 211 91 C201.1 91 191.2 91 181 91 C181 80.77 181 70.54 181 60 C171.1 60 161.2 60 151 60 C151 50.1 151 40.2 151 30 C101.17 30 51.34 30 0 30 C0 20.1 0 10.2 0 0 Z " fill="#E6F1FE" transform="translate(30,331)"/>
<path d="M0 0 C10.23 0 20.46 0 31 0 C31 9.9 31 19.8 31 30 C40.9 30 50.8 30 61 30 C61 40.23 61 50.46 61 61 C70.9 61 80.8 61 91 61 C91 70.9 91 80.8 91 91 C81.1 91 71.2 91 61 91 C61 100.9 61 110.8 61 121 C51.1 121 41.2 121 31 121 C31 130.9 31 140.8 31 151 C21.1 151 11.2 151 1 151 C1 141.1 1 131.2 1 121 C-9.23 121 -19.46 121 -30 121 C-30 111.1 -30 101.2 -30 91 C-39.9 91 -49.8 91 -60 91 C-60 80.77 -60 70.54 -60 60 C-50.1 60 -40.2 60 -30 60 C-30 50.1 -30 40.2 -30 30 C-20.1 30 -10.2 30 0 30 C0 20.1 0 10.2 0 0 Z " fill="#F4861C" transform="translate(150,90)"/>
<path d="M0 0 C49.83 0 99.66 0 151 0 C151 19.8 151 39.6 151 60 C101.17 60 51.34 60 0 60 C0 40.2 0 20.4 0 0 Z " fill="#BFD3F6" transform="translate(271,0)"/>
<path d="M0 0 C89.76 0 179.52 0 272 0 C272 9.9 272 19.8 272 30 C182.24 30 92.48 30 0 30 C0 20.1 0 10.2 0 0 Z " fill="#000000" transform="translate(90,482)"/>
<path d="M0 0 C9.9 0 19.8 0 30 0 C30 9.9 30 19.8 30 30 C79.83 30 129.66 30 181 30 C181 20.1 181 10.2 181 0 C190.9 0 200.8 0 211 0 C211 10.23 211 20.46 211 31 C201.1 31 191.2 31 181 31 C181 40.57 181 50.14 181 60 C121.27 60 61.54 60 0 60 C0 40.2 0 20.4 0 0 Z " fill="#000000" transform="translate(241,30)"/>
<path d="M0 0 C49.5 0 99 0 150 0 C150 9.57 150 19.14 150 29 C120.3 29 90.6 29 60 29 C60 39.23 60 49.46 60 60 C50.1 60 40.2 60 30 60 C30 50.1 30 40.2 30 30 C20.1 30 10.2 30 0 30 C0 20.1 0 10.2 0 0 Z " fill="#000000" transform="translate(30,362)"/>
<path d="M0 0 C10.23 0 20.46 0 31 0 C31 9.9 31 19.8 31 30 C40.57 30 50.14 30 60 30 C60 39.9 60 49.8 60 60 C50.43 60 40.86 60 31 60 C31 69.9 31 79.8 31 90 C20.77 90 10.54 90 0 90 C0 80.1 0 70.2 0 60 C-9.9 60 -19.8 60 -30 60 C-30 50.1 -30 40.2 -30 30 C-20.1 30 -10.2 30 0 30 C0 20.1 0 10.2 0 0 Z " fill="#F3861B" transform="translate(391,211)"/>
<path d="M0 0 C9.9 0 19.8 0 30 0 C30 50.16 30 100.32 30 152 C20.1 152 10.2 152 0 152 C0 101.84 0 51.68 0 0 Z " fill="#000000" transform="translate(482,180)"/>
<path d="M0 0 C9.9 0 19.8 0 30 0 C30 49.5 30 99 30 150 C20.1 150 10.2 150 0 150 C-0.13226749 142.70166872 -0.26390428 135.40335665 -0.39079285 128.10493469 C-0.45008619 124.70257867 -0.51051409 121.30025332 -0.57275391 117.89794922 C-1.1190541 87.96292824 -1.04759909 58.05919208 -0.5 28.125 C-0.45128662 25.37110306 -0.40334758 22.61719281 -0.35546875 19.86328125 C-0.24014529 13.24212408 -0.11999369 6.62108059 0 0 Z " fill="#FE9E00" transform="translate(452,181)"/>
<path d="M0 0 C49.83 0 99.66 0 151 0 C151 9.9 151 19.8 151 30 C101.17 30 51.34 30 0 30 C0 20.1 0 10.2 0 0 Z " fill="#000000" transform="translate(271,0)"/>
<path d="M0 0 C20.13 0 40.26 0 61 0 C61 9.9 61 19.8 61 30 C41.2 30 21.4 30 1 30 C1 39.9 1 49.8 1 60 C-19.13 60 -39.26 60 -60 60 C-60 50.1 -60 40.2 -60 30 C-40.2 30 -20.4 30 0 30 C0 20.1 0 10.2 0 0 Z " fill="#000000" transform="translate(180,0)"/>
<path d="M0 0 C0.33 0 0.66 0 1 0 C1 9.57 1 19.14 1 29 C60.4 29 119.8 29 181 29 C181 19.43 181 9.86 181 0 C211.03 0 241.06 0 272 0 C272 9.9 272 19.8 272 30 C182.24 30 92.48 30 0 30 C0 20.1 0 10.2 0 0 Z " fill="#BED2F3" transform="translate(90,452)"/>
<path d="M0 0 C29.7 0 59.4 0 90 0 C90 9.9 90 19.8 90 30 C60.3 30 30.6 30 0 30 C0 20.1 0 10.2 0 0 Z " fill="#030303" transform="translate(271,422)"/>
<path d="M0 0 C29.37 0 58.74 0 89 0 C89 9.57 89 19.14 89 29 C59.63 29 30.26 29 0 29 C0 19.43 0 9.86 0 0 Z " fill="#FADF00" transform="translate(91,392)"/>
<path d="M0 0 C99.33 0 198.66 0 301 0 C301 9.9 301 19.8 301 30 C281.2 30 261.4 30 241 30 C241 20.43 241 10.86 241 1 C161.47 1 81.94 1 0 1 C0 0.67 0 0.34 0 0 Z " fill="#BBCFEE" transform="translate(30,331)"/>
<path d="M0 0 C9.9 0 19.8 0 30 0 C30 19.8 30 39.6 30 60 C20.1 60 10.2 60 0 60 C0 40.2 0 20.4 0 0 Z " fill="#000000" transform="translate(452,332)"/>
<path d="M0 0 C9.9 0 19.8 0 30 0 C30 19.8 30 39.6 30 60 C20.1 60 10.2 60 0 60 C0 40.2 0 20.4 0 0 Z " fill="#000000" transform="translate(452,120)"/>
<path d="M0 0 C9.9 0 19.8 0 30 0 C30 19.8 30 39.6 30 60 C20.1 60 10.2 60 0 60 C0 40.2 0 20.4 0 0 Z " fill="#FE9E00" transform="translate(241,30)"/>
<path d="M0 0 C19.8 0 39.6 0 60 0 C60 9.57 60 19.14 60 29 C40.2 29 20.4 29 0 29 C0 19.43 0 9.86 0 0 Z " fill="#000000" transform="translate(271,362)"/>
<path d="M0 0 C9.57 0 19.14 0 29 0 C29 19.8 29 39.6 29 60 C19.43 60 9.86 60 0 60 C0 40.2 0 20.4 0 0 Z " fill="#FE9E00" transform="translate(422,331)"/>
<path d="M0 0 C19.8 0 39.6 0 60 0 C60 9.57 60 19.14 60 29 C40.2 29 20.4 29 0 29 C0 19.43 0 9.86 0 0 Z " fill="#E6F1FE" transform="translate(271,31)"/>
<path d="M0 0 C9.9 0 19.8 0 30 0 C30 10.23 30 20.46 30 31 C-29.73 31 -89.46 31 -151 31 C-151 30.67 -151 30.34 -151 30 C-101.17 30 -51.34 30 0 30 C0 20.1 0 10.2 0 0 Z " fill="#0A0B0C" transform="translate(422,30)"/>
<path d="M0 0 C4.929375 -0.020625 9.85875 -0.04125 14.9375 -0.0625 C17.2731604 -0.07615601 17.2731604 -0.07615601 19.65600586 -0.09008789 C21.47950562 -0.09383423 21.47950562 -0.09383423 23.33984375 -0.09765625 C24.59144287 -0.10289307 25.84304199 -0.10812988 27.13256836 -0.11352539 C30 0 30 0 31 1 C31.08783542 3.21855264 31.10694609 5.43988496 31.09765625 7.66015625 C31.09515869 8.87582275 31.09266113 10.09148926 31.09008789 11.34399414 C31.08098389 12.90110107 31.07187988 14.45820801 31.0625 16.0625 C31.041875 20.991875 31.02125 25.92125 31 31 C20.77 31 10.54 31 0 31 C0 20.77 0 10.54 0 0 Z " fill="#F5891D" transform="translate(331,150)"/>
<path d="M0 0 C9.9 0 19.8 0 30 0 C30 10.23 30 20.46 30 31 C20.1 31 10.2 31 0 31 C0 20.77 0 10.54 0 0 Z " fill="#000000" transform="translate(60,451)"/>
<path d="M0 0 C9.9 0 19.8 0 30 0 C30 10.23 30 20.46 30 31 C20.1 31 10.2 31 0 31 C0 20.77 0 10.54 0 0 Z " fill="#BED3F5" transform="translate(241,361)"/>
<path d="M0 0 C9.9 0 19.8 0 30 0 C30 10.23 30 20.46 30 31 C20.1 31 10.2 31 0 31 C0 20.77 0 10.54 0 0 Z " fill="#000000" transform="translate(0,331)"/>
<path d="M0 0 C9.9 0 19.8 0 30 0 C30 9.9 30 19.8 30 30 C20.1 30 10.2 30 0 30 C0 20.1 0 10.2 0 0 Z " fill="#000000" transform="translate(362,452)"/>
<path d="M0 0 C9.9 0 19.8 0 30 0 C30 9.9 30 19.8 30 30 C20.1 30 10.2 30 0 30 C0 20.1 0 10.2 0 0 Z " fill="#000000" transform="translate(392,422)"/>
<path d="M0 0 C9.9 0 19.8 0 30 0 C30 9.9 30 19.8 30 30 C20.1 30 10.2 30 0 30 C0 20.1 0 10.2 0 0 Z " fill="#BFD4F7" transform="translate(241,422)"/>
<path d="M0 0 C9.9 0 19.8 0 30 0 C30 9.9 30 19.8 30 30 C20.1 30 10.2 30 0 30 C0 20.1 0 10.2 0 0 Z " fill="#000000" transform="translate(422,392)"/>
<path d="M0 0 C9.9 0 19.8 0 30 0 C30 9.9 30 19.8 30 30 C20.1 30 10.2 30 0 30 C0 20.1 0 10.2 0 0 Z " fill="#BFD4F7" transform="translate(211,392)"/>
<path d="M0 0 C9.9 0 19.8 0 30 0 C30 9.9 30 19.8 30 30 C20.1 30 10.2 30 0 30 C0 20.1 0 10.2 0 0 Z " fill="#E46804" transform="translate(361,241)"/>
<path d="M0 0 C9.9 0 19.8 0 30 0 C30 9.9 30 19.8 30 30 C20.1 30 10.2 30 0 30 C0 20.1 0 10.2 0 0 Z " fill="#F5861E" transform="translate(90,241)"/>
<path d="M0 0 C9.9 0 19.8 0 30 0 C30 9.9 30 19.8 30 30 C20.1 30 10.2 30 0 30 C0 20.1 0 10.2 0 0 Z " fill="#F5851E" transform="translate(241,211)"/>
<path d="M0 0 C9.9 0 19.8 0 30 0 C30 9.9 30 19.8 30 30 C20.1 30 10.2 30 0 30 C0 20.1 0 10.2 0 0 Z " fill="#E46804" transform="translate(181,181)"/>
<path d="M0 0 C9.9 0 19.8 0 30 0 C30 9.9 30 19.8 30 30 C20.1 30 10.2 30 0 30 C0 20.1 0 10.2 0 0 Z " fill="#E46805" transform="translate(121,181)"/>
<path d="M0 0 C9.9 0 19.8 0 30 0 C30 9.9 30 19.8 30 30 C20.1 30 10.2 30 0 30 C0 20.1 0 10.2 0 0 Z " fill="#E46805" transform="translate(181,121)"/>
<path d="M0 0 C9.9 0 19.8 0 30 0 C30 9.9 30 19.8 30 30 C20.1 30 10.2 30 0 30 C0 20.1 0 10.2 0 0 Z " fill="#E46705" transform="translate(121,121)"/>
<path d="M0 0 C9.9 0 19.8 0 30 0 C30 9.9 30 19.8 30 30 C20.1 30 10.2 30 0 30 C0 20.1 0 10.2 0 0 Z " fill="#000000" transform="translate(422,90)"/>
<path d="M0 0 C9.9 0 19.8 0 30 0 C30 9.9 30 19.8 30 30 C20.1 30 10.2 30 0 30 C0 20.1 0 10.2 0 0 Z " fill="#000000" transform="translate(60,90)"/>
<path d="M0 0 C9.9 0 19.8 0 30 0 C30 9.9 30 19.8 30 30 C20.1 30 10.2 30 0 30 C0 20.1 0 10.2 0 0 Z " fill="#000000" transform="translate(90,60)"/>
<path d="M0 0 C9.9 0 19.8 0 30 0 C30 9.9 30 19.8 30 30 C20.1 30 10.2 30 0 30 C0 20.1 0 10.2 0 0 Z " fill="#000000" transform="translate(241,30)"/>
<path d="M0 0 C9.9 0 19.8 0 30 0 C30 9.9 30 19.8 30 30 C20.1 30 10.2 30 0 30 C0 20.1 0 10.2 0 0 Z " fill="#FE9E00" transform="translate(211,30)"/>
<path d="M0 0 C9.9 0 19.8 0 30 0 C30 9.57 30 19.14 30 29 C20.1 29 10.2 29 0 29 C0 19.43 0 9.86 0 0 Z " fill="#000000" transform="translate(241,392)"/>
<path d="M0 0 C9.57 0 19.14 0 29 0 C29 9.9 29 19.8 29 30 C19.43 30 9.86 30 0 30 C0 20.1 0 10.2 0 0 Z " fill="#E46705" transform="translate(392,271)"/>
<path d="M0 0 C9.57 0 19.14 0 29 0 C29 9.9 29 19.8 29 30 C19.43 30 9.86 30 0 30 C0 20.1 0 10.2 0 0 Z " fill="#E46705" transform="translate(422,241)"/>
<path d="M0 0 C9.57 0 19.14 0 29 0 C29 9.9 29 19.8 29 30 C19.43 30 9.86 30 0 30 C0 20.1 0 10.2 0 0 Z " fill="#E46705" transform="translate(392,211)"/>
<path d="M0 0 C9.57 0 19.14 0 29 0 C29 9.9 29 19.8 29 30 C19.43 30 9.86 30 0 30 C0 20.1 0 10.2 0 0 Z " fill="#E46705" transform="translate(151,211)"/>
<path d="M0 0 C9.9 0 19.8 0 30 0 C30 9.57 30 19.14 30 29 C20.1 29 10.2 29 0 29 C0 19.43 0 9.86 0 0 Z " fill="#E46705" transform="translate(211,151)"/>
<path d="M0 0 C9.57 0 19.14 0 29 0 C29 9.57 29 19.14 29 29 C19.43 29 9.86 29 0 29 C0 19.43 0 9.86 0 0 Z " fill="#000000" transform="translate(181,392)"/>
<path d="M0 0 C9.57 0 19.14 0 29 0 C29 9.57 29 19.14 29 29 C19.43 29 9.86 29 0 29 C0 19.43 0 9.86 0 0 Z " fill="#000000" transform="translate(332,332)"/>
<path d="M0 0 C9.57 0 19.14 0 29 0 C29 9.57 29 19.14 29 29 C19.43 29 9.86 29 0 29 C0 19.43 0 9.86 0 0 Z " fill="#E46705" transform="translate(91,151)"/>
<path d="M0 0 C9.57 0 19.14 0 29 0 C29 9.57 29 19.14 29 29 C19.43 29 9.86 29 0 29 C0 19.43 0 9.86 0 0 Z " fill="#E46705" transform="translate(151,91)"/>
<path d="M0 0 C49.83 0 99.66 0 151 0 C151 9.9 151 19.8 151 30 C160.9 30 170.8 30 181 30 C181 40.23 181 50.46 181 61 C141.07 61 101.14 61 60 61 C60 50.77 60 40.54 60 30 C89.7 30 119.4 30 150 30 C150 20.43 150 10.86 150 1 C100.5 1 51 1 0 1 C0 0.67 0 0.34 0 0 Z M61 31 C61 40.57 61 50.14 61 60 C90.37 60 119.74 60 150 60 C150 50.43 150 40.86 150 31 C120.63 31 91.26 31 61 31 Z M151 31 C151 40.57 151 50.14 151 60 C160.57 60 170.14 60 180 60 C180 50.43 180 40.86 180 31 C170.43 31 160.86 31 151 31 Z " fill="#757035" transform="translate(30,361)"/>
<path d="M0 0 C10.23 0 20.46 0 31 0 C31.020625 4.929375 31.04125 9.85875 31.0625 14.9375 C31.071604 16.49460693 31.08070801 18.05171387 31.09008789 19.65600586 C31.09258545 20.87167236 31.09508301 22.08733887 31.09765625 23.33984375 C31.10289307 24.59144287 31.10812988 25.84304199 31.11352539 27.13256836 C31 30 31 30 30 31 C27.85441173 31.08775605 25.70595579 31.10695219 23.55859375 31.09765625 C22.38353271 31.09515869 21.20847168 31.09266113 19.99780273 31.09008789 C18.49290283 31.08098389 16.98800293 31.07187988 15.4375 31.0625 C10.673125 31.041875 5.90875 31.02125 1 31 C1 40.9 1 50.8 1 61 C-19.13 61 -39.26 61 -60 61 C-60 60.67 -60 60.34 -60 60 C-40.2 60 -20.4 60 0 60 C0 50.43 0 40.86 0 31 C-19.8 31 -39.6 31 -60 31 C-60 30.67 -60 30.34 -60 30 C-40.2 30 -20.4 30 0 30 C0 20.1 0 10.2 0 0 Z M1 1 C1 10.57 1 20.14 1 30 C10.57 30 20.14 30 30 30 C30 20.43 30 10.86 30 1 C20.43 1 10.86 1 1 1 Z " fill="#807A33" transform="translate(331,331)"/>
</svg>
