<?xml version="1.0" encoding="UTF-8"?>
<svg version="1.1" xmlns="http://www.w3.org/2000/svg" width="512" height="512">
<path d="M0 0 C1.51208881 -0.00462307 3.0241731 -0.01098532 4.53624821 -0.01890898 C8.64231035 -0.03543272 12.74799523 -0.02743436 16.85405779 -0.0149641 C21.3013198 -0.00584555 25.74852073 -0.01991679 30.19577026 -0.03088379 C38.88857641 -0.04860155 47.58124383 -0.04485924 56.27405524 -0.03323323 C63.34353247 -0.0241725 70.41297102 -0.02298628 77.48245239 -0.02732849 C78.4914472 -0.02794142 79.50044201 -0.02855436 80.54001242 -0.02918586 C82.59023818 -0.03046486 84.64046394 -0.03176171 86.69068968 -0.03307623 C105.88240318 -0.04446227 125.07404006 -0.03139939 144.26574099 -0.00987476 C160.70674002 0.00799441 177.14762605 0.00488975 193.58862305 -0.0135498 C212.715123 -0.03499149 231.84155592 -0.04336382 250.96806622 -0.03110075 C253.01043891 -0.02982665 255.05281161 -0.02856917 257.09518433 -0.02732849 C258.60222407 -0.02640284 258.60222407 -0.02640284 260.13970906 -0.02545848 C267.19464713 -0.02201547 274.24954243 -0.02781124 281.30447388 -0.0372467 C289.91075372 -0.04850479 298.51688777 -0.04534694 307.12315106 -0.02412373 C311.50800292 -0.01366435 315.89261235 -0.00940339 320.27746201 -0.02272034 C324.30188237 -0.03475713 328.32583865 -0.02789889 332.3502177 -0.00681013 C333.79550121 -0.00239131 335.24082504 -0.00450209 336.68608201 -0.01431328 C350.10053949 -0.09829612 363.07124481 2.24452052 375.16381836 8.25793457 C375.86869385 8.5986499 376.57356934 8.93936523 377.29980469 9.29040527 C383.28456692 12.28931622 388.31540884 16.03454468 393.28881836 20.50793457 C394.2569043 21.28266113 395.22499023 22.0573877 396.22241211 22.85559082 C404.23807266 29.53045917 410.23855652 38.55203044 414.72631836 47.88293457 C415.18433838 48.81541016 415.18433838 48.81541016 415.65161133 49.76672363 C421.21758808 62.06787072 422.88756325 74.84212723 422.79675293 88.21911621 C422.801376 89.73120502 422.80773825 91.24328931 422.81566191 92.75536442 C422.83218565 96.86142656 422.82418729 100.96711144 422.81171703 105.073174 C422.80259848 109.52043601 422.81666972 113.96763694 422.82763672 118.41488647 C422.84535448 127.10769262 422.84161217 135.80036004 422.82998616 144.49317145 C422.82092543 151.56264868 422.81973921 158.63208723 422.82408142 165.7015686 C422.82469435 166.71056341 422.82530729 167.71955822 422.82593879 168.75912863 C422.82721779 170.8093544 422.82851464 172.85958015 422.82982916 174.90980589 C422.8412152 194.10151939 422.82815232 213.29315627 422.80662769 232.4848572 C422.78875852 248.92585623 422.79186318 265.36674226 422.81030273 281.80773926 C422.83174442 300.93423921 422.84011675 320.06067213 422.82785368 339.18718243 C422.82657958 341.22955512 422.8253221 343.27192782 422.82408142 345.31430054 C422.82315577 346.82134028 422.82315577 346.82134028 422.82221141 348.35882527 C422.8187684 355.41376334 422.82456417 362.46865864 422.83399963 369.52359009 C422.84525772 378.12986993 422.84209987 386.73600398 422.82087666 395.34226727 C422.81041728 399.72711913 422.80615632 404.11172856 422.81947327 408.49657822 C422.83151006 412.52099858 422.82465182 416.54495486 422.80356306 420.56933391 C422.79914424 422.01461742 422.80125501 423.45994125 422.81106621 424.90519822 C422.89372811 438.10866432 420.82375646 451.22912995 414.41381836 462.94543457 C414.06649658 463.60736816 413.7191748 464.26930176 413.36132812 464.95129395 C410.65572185 470.02749702 407.77253332 474.92166088 404.28881836 479.50793457 C403.80413086 480.15633301 403.31944336 480.80473145 402.82006836 481.47277832 C390.20777686 497.0835803 369.94555984 507.66752654 350.28881836 510.50793457 C348.15370667 510.59740828 346.01624952 510.63868372 343.87926674 510.64215565 C342.60226485 510.64661349 341.32526296 510.65107134 340.00956404 510.65566427 C338.59976998 510.65557498 337.18997592 510.65538515 335.78018188 510.65510559 C334.27672874 510.65840699 332.77327648 510.66213314 331.26982534 510.66624707 C327.14129389 510.67624398 323.01277698 510.67998015 318.88423514 510.68263638 C314.42999898 510.68654635 309.97577425 510.69612427 305.52154541 510.70484924 C294.76525617 510.72459513 284.00896602 510.73467795 273.2526632 510.74357703 C268.18309376 510.74796342 263.11352537 510.75332936 258.04395676 510.7585659 C241.18384073 510.77557707 224.32372535 510.79006991 207.46360207 510.79731464 C203.09007389 510.79922444 198.71654573 510.80114478 194.34301758 510.80310059 C193.25604255 510.80358433 192.16906752 510.80406807 191.04915385 510.80456647 C173.45196021 510.81286177 155.85483465 510.83819077 138.25767072 510.87068126 C120.17720373 510.90379097 102.0967713 510.92176698 84.01627386 510.92495888 C73.87041143 510.92712047 63.72464827 510.93581742 53.57881546 510.96142006 C44.93571649 510.98318062 36.29274089 510.99115124 27.64961763 510.98145328 C23.24456765 510.97692393 18.83977195 510.97871472 14.43475723 510.99821472 C10.391458 511.01595782 6.34859642 511.01475953 2.30529182 510.99931743 C0.85296998 510.99695811 -0.59938306 511.00117647 -2.05165748 511.01314608 C-15.4940422 511.11695505 -28.46815258 508.78400719 -40.58618164 502.75793457 C-41.29105713 502.41721924 -41.99593262 502.07650391 -42.72216797 501.72546387 C-48.7069302 498.72655292 -53.73777212 494.98132446 -58.71118164 490.50793457 C-60.16331055 489.34584473 -60.16331055 489.34584473 -61.64477539 488.16027832 C-69.66043594 481.48540997 -75.66091981 472.46383871 -80.14868164 463.13293457 C-80.60670166 462.20045898 -80.60670166 462.20045898 -81.07397461 461.24914551 C-86.63995137 448.94799843 -88.30992653 436.17374191 -88.21911621 422.79675293 C-88.22373928 421.28466412 -88.23010153 419.77257983 -88.23802519 418.26050472 C-88.25454893 414.15444258 -88.24655057 410.0487577 -88.23408031 405.94269514 C-88.22496177 401.49543313 -88.239033 397.0482322 -88.25 392.60098267 C-88.26771776 383.90817652 -88.26397545 375.2155091 -88.25234944 366.52269769 C-88.24328871 359.45322046 -88.24210249 352.38378191 -88.2464447 345.31430054 C-88.24705763 344.30530573 -88.24767057 343.29631092 -88.24830207 342.25674051 C-88.24958107 340.20651474 -88.25087792 338.15628899 -88.25219244 336.10606325 C-88.26357848 316.91434975 -88.2505156 297.72271287 -88.22899097 278.53101194 C-88.2111218 262.09001291 -88.21422646 245.64912688 -88.23266602 229.20812988 C-88.2541077 210.08162993 -88.26248003 190.95519701 -88.25021696 171.82868671 C-88.24894286 169.78631402 -88.24768538 167.74394132 -88.2464447 165.7015686 C-88.24551905 164.19452886 -88.24551905 164.19452886 -88.2445747 162.65704387 C-88.24113168 155.6021058 -88.24692745 148.5472105 -88.25636292 141.49227905 C-88.267621 132.88599921 -88.26446315 124.27986516 -88.24323994 115.67360187 C-88.23278056 111.28875001 -88.2285196 106.90414058 -88.24183655 102.51929092 C-88.25387334 98.49487056 -88.2470151 94.47091428 -88.22592634 90.44653523 C-88.22150752 89.00125172 -88.2236183 87.55592789 -88.23342949 86.11067092 C-88.31740923 72.69670879 -85.97506585 59.72490815 -79.96118164 47.63293457 C-79.61974121 46.92733398 -79.27830078 46.2217334 -78.92651367 45.49475098 C-75.92297412 39.5055419 -72.18916656 34.48768102 -67.71118164 29.50793457 C-67.25614258 28.9123877 -66.80110352 28.31684082 -66.33227539 27.70324707 C-59.64515083 19.03992749 -50.14286151 12.84342855 -40.39868164 8.13293457 C-39.7730835 7.82364014 -39.14748535 7.5143457 -38.50292969 7.19567871 C-26.19594633 1.57438504 -13.40222033 -0.09098161 0 0 Z " fill="#FEFEFE" transform="translate(88.711181640625,0.4920654296875)"/>
<path d="M0 0 C1.51208881 -0.00462307 3.0241731 -0.01098532 4.53624821 -0.01890898 C8.64231035 -0.03543272 12.74799523 -0.02743436 16.85405779 -0.0149641 C21.3013198 -0.00584555 25.74852073 -0.01991679 30.19577026 -0.03088379 C38.88857641 -0.04860155 47.58124383 -0.04485924 56.27405524 -0.03323323 C63.34353247 -0.0241725 70.41297102 -0.02298628 77.48245239 -0.02732849 C78.4914472 -0.02794142 79.50044201 -0.02855436 80.54001242 -0.02918586 C82.59023818 -0.03046486 84.64046394 -0.03176171 86.69068968 -0.03307623 C105.88240318 -0.04446227 125.07404006 -0.03139939 144.26574099 -0.00987476 C160.70674002 0.00799441 177.14762605 0.00488975 193.58862305 -0.0135498 C212.715123 -0.03499149 231.84155592 -0.04336382 250.96806622 -0.03110075 C253.01043891 -0.02982665 255.05281161 -0.02856917 257.09518433 -0.02732849 C258.60222407 -0.02640284 258.60222407 -0.02640284 260.13970906 -0.02545848 C267.19464713 -0.02201547 274.24954243 -0.02781124 281.30447388 -0.0372467 C289.91075372 -0.04850479 298.51688777 -0.04534694 307.12315106 -0.02412373 C311.50800292 -0.01366435 315.89261235 -0.00940339 320.27746201 -0.02272034 C324.30188237 -0.03475713 328.32583865 -0.02789889 332.3502177 -0.00681013 C333.79550121 -0.00239131 335.24082504 -0.00450209 336.68608201 -0.01431328 C350.10053949 -0.09829612 363.07124481 2.24452052 375.16381836 8.25793457 C375.86869385 8.5986499 376.57356934 8.93936523 377.29980469 9.29040527 C383.28456692 12.28931622 388.31540884 16.03454468 393.28881836 20.50793457 C394.2569043 21.28266113 395.22499023 22.0573877 396.22241211 22.85559082 C404.23807266 29.53045917 410.23855652 38.55203044 414.72631836 47.88293457 C415.18433838 48.81541016 415.18433838 48.81541016 415.65161133 49.76672363 C421.21758808 62.06787072 422.88756325 74.84212723 422.79675293 88.21911621 C422.801376 89.73120502 422.80773825 91.24328931 422.81566191 92.75536442 C422.83218565 96.86142656 422.82418729 100.96711144 422.81171703 105.073174 C422.80259848 109.52043601 422.81666972 113.96763694 422.82763672 118.41488647 C422.84535448 127.10769262 422.84161217 135.80036004 422.82998616 144.49317145 C422.82092543 151.56264868 422.81973921 158.63208723 422.82408142 165.7015686 C422.82469435 166.71056341 422.82530729 167.71955822 422.82593879 168.75912863 C422.82721779 170.8093544 422.82851464 172.85958015 422.82982916 174.90980589 C422.8412152 194.10151939 422.82815232 213.29315627 422.80662769 232.4848572 C422.78875852 248.92585623 422.79186318 265.36674226 422.81030273 281.80773926 C422.83174442 300.93423921 422.84011675 320.06067213 422.82785368 339.18718243 C422.82657958 341.22955512 422.8253221 343.27192782 422.82408142 345.31430054 C422.82315577 346.82134028 422.82315577 346.82134028 422.82221141 348.35882527 C422.8187684 355.41376334 422.82456417 362.46865864 422.83399963 369.52359009 C422.84525772 378.12986993 422.84209987 386.73600398 422.82087666 395.34226727 C422.81041728 399.72711913 422.80615632 404.11172856 422.81947327 408.49657822 C422.83151006 412.52099858 422.82465182 416.54495486 422.80356306 420.56933391 C422.79914424 422.01461742 422.80125501 423.45994125 422.81106621 424.90519822 C422.89372811 438.10866432 420.82375646 451.22912995 414.41381836 462.94543457 C414.06649658 463.60736816 413.7191748 464.26930176 413.36132812 464.95129395 C410.65572185 470.02749702 407.77253332 474.92166088 404.28881836 479.50793457 C403.80413086 480.15633301 403.31944336 480.80473145 402.82006836 481.47277832 C390.20777686 497.0835803 369.94555984 507.66752654 350.28881836 510.50793457 C348.15370667 510.59740828 346.01624952 510.63868372 343.87926674 510.64215565 C342.60226485 510.64661349 341.32526296 510.65107134 340.00956404 510.65566427 C338.59976998 510.65557498 337.18997592 510.65538515 335.78018188 510.65510559 C334.27672874 510.65840699 332.77327648 510.66213314 331.26982534 510.66624707 C327.14129389 510.67624398 323.01277698 510.67998015 318.88423514 510.68263638 C314.42999898 510.68654635 309.97577425 510.69612427 305.52154541 510.70484924 C294.76525617 510.72459513 284.00896602 510.73467795 273.2526632 510.74357703 C268.18309376 510.74796342 263.11352537 510.75332936 258.04395676 510.7585659 C241.18384073 510.77557707 224.32372535 510.79006991 207.46360207 510.79731464 C203.09007389 510.79922444 198.71654573 510.80114478 194.34301758 510.80310059 C193.25604255 510.80358433 192.16906752 510.80406807 191.04915385 510.80456647 C173.45196021 510.81286177 155.85483465 510.83819077 138.25767072 510.87068126 C120.17720373 510.90379097 102.0967713 510.92176698 84.01627386 510.92495888 C73.87041143 510.92712047 63.72464827 510.93581742 53.57881546 510.96142006 C44.93571649 510.98318062 36.29274089 510.99115124 27.64961763 510.98145328 C23.24456765 510.97692393 18.83977195 510.97871472 14.43475723 510.99821472 C10.391458 511.01595782 6.34859642 511.01475953 2.30529182 510.99931743 C0.85296998 510.99695811 -0.59938306 511.00117647 -2.05165748 511.01314608 C-15.4940422 511.11695505 -28.46815258 508.78400719 -40.58618164 502.75793457 C-41.29105713 502.41721924 -41.99593262 502.07650391 -42.72216797 501.72546387 C-48.7069302 498.72655292 -53.73777212 494.98132446 -58.71118164 490.50793457 C-60.16331055 489.34584473 -60.16331055 489.34584473 -61.64477539 488.16027832 C-69.66043594 481.48540997 -75.66091981 472.46383871 -80.14868164 463.13293457 C-80.60670166 462.20045898 -80.60670166 462.20045898 -81.07397461 461.24914551 C-86.63995137 448.94799843 -88.30992653 436.17374191 -88.21911621 422.79675293 C-88.22373928 421.28466412 -88.23010153 419.77257983 -88.23802519 418.26050472 C-88.25454893 414.15444258 -88.24655057 410.0487577 -88.23408031 405.94269514 C-88.22496177 401.49543313 -88.239033 397.0482322 -88.25 392.60098267 C-88.26771776 383.90817652 -88.26397545 375.2155091 -88.25234944 366.52269769 C-88.24328871 359.45322046 -88.24210249 352.38378191 -88.2464447 345.31430054 C-88.24705763 344.30530573 -88.24767057 343.29631092 -88.24830207 342.25674051 C-88.24958107 340.20651474 -88.25087792 338.15628899 -88.25219244 336.10606325 C-88.26357848 316.91434975 -88.2505156 297.72271287 -88.22899097 278.53101194 C-88.2111218 262.09001291 -88.21422646 245.64912688 -88.23266602 229.20812988 C-88.2541077 210.08162993 -88.26248003 190.95519701 -88.25021696 171.82868671 C-88.24894286 169.78631402 -88.24768538 167.74394132 -88.2464447 165.7015686 C-88.24551905 164.19452886 -88.24551905 164.19452886 -88.2445747 162.65704387 C-88.24113168 155.6021058 -88.24692745 148.5472105 -88.25636292 141.49227905 C-88.267621 132.88599921 -88.26446315 124.27986516 -88.24323994 115.67360187 C-88.23278056 111.28875001 -88.2285196 106.90414058 -88.24183655 102.51929092 C-88.25387334 98.49487056 -88.2470151 94.47091428 -88.22592634 90.44653523 C-88.22150752 89.00125172 -88.2236183 87.55592789 -88.23342949 86.11067092 C-88.31740923 72.69670879 -85.97506585 59.72490815 -79.96118164 47.63293457 C-79.61974121 46.92733398 -79.27830078 46.2217334 -78.92651367 45.49475098 C-75.92297412 39.5055419 -72.18916656 34.48768102 -67.71118164 29.50793457 C-67.25614258 28.9123877 -66.80110352 28.31684082 -66.33227539 27.70324707 C-59.64515083 19.03992749 -50.14286151 12.84342855 -40.39868164 8.13293457 C-39.7730835 7.82364014 -39.14748535 7.5143457 -38.50292969 7.19567871 C-26.19594633 1.57438504 -13.40222033 -0.09098161 0 0 Z M-46.75415039 51.99230957 C-55.76678176 64.36786309 -58.01422176 75.83381967 -57.9853363 90.91540527 C-57.989793 92.38346313 -57.99510846 93.85151858 -58.00120503 95.31957054 C-58.0153441 99.34098645 -58.0170491 103.36232492 -58.01660812 107.38376212 C-58.01825998 111.72617922 -58.03133351 116.06856475 -58.0428009 120.41096497 C-58.06562289 129.90093187 -58.07356871 139.39087638 -58.07862735 148.880867 C-58.08188806 154.81155224 -58.08841287 160.74223102 -58.09562874 166.6729126 C-58.11519214 183.10762319 -58.1315975 199.54232779 -58.13450527 215.97705078 C-58.13469284 217.02818204 -58.13488041 218.07931329 -58.13507367 219.16229701 C-58.13543991 221.29301739 -58.1358036 223.42373776 -58.13616478 225.55445814 C-58.13634759 226.61208876 -58.1365304 227.66971938 -58.13671875 228.75939941 C-58.1368993 229.81832791 -58.13707985 230.8772564 -58.13726587 231.96827364 C-58.14080539 249.11594039 -58.16781511 266.2634814 -58.20521664 283.41110456 C-58.24334814 301.03511521 -58.26266311 318.65906354 -58.26296479 336.28311634 C-58.26354831 346.17075089 -58.27197269 356.05823548 -58.30096245 365.9458313 C-58.32554133 374.36749153 -58.33271555 382.78894712 -58.31771492 391.21063358 C-58.31057219 395.50233584 -58.31128859 399.79363453 -58.33412552 404.08529091 C-58.35488737 408.02498111 -58.35195729 411.96396191 -58.33125068 415.90364587 C-58.32778828 417.31822316 -58.33252547 418.73285347 -58.34695511 420.1473614 C-58.51199184 437.46101998 -53.42341275 452.45442641 -41.52368164 465.25793457 C-28.8040872 477.28882001 -13.80827664 481.13229179 3.29756165 481.02259827 C4.76993905 481.02793566 6.242311 481.03500815 7.71467274 481.04364532 C11.72489247 481.06214212 15.73473964 481.0560129 19.74497402 481.04549229 C24.0839107 481.03846303 28.42277368 481.05452643 32.76168823 481.06748962 C41.248355 481.0890737 49.73488739 481.08901697 58.22157256 481.08086408 C65.12378905 481.07455023 72.02596651 481.0757138 78.9281826 481.08213615 C80.40481714 481.08348864 80.40481714 481.08348864 81.91128268 481.08486844 C83.91150005 481.08671975 85.91171741 481.08858232 87.91193476 481.090456 C106.64724532 481.10701538 125.38248047 481.09833154 144.11778649 481.08147042 C161.23281238 481.06677938 178.34766262 481.08139681 195.46266589 481.11024059 C213.064247 481.13968195 230.66574717 481.15059279 248.26735181 481.14105839 C250.26090346 481.1400359 252.25445514 481.13904129 254.24800682 481.13807487 C255.22870795 481.13759848 256.20940908 481.1371221 257.21982843 481.13663127 C264.10643083 481.13447317 270.99295609 481.14423912 277.8795414 481.1588459 C286.28279948 481.17642192 294.68583385 481.17617677 303.08908335 481.15349425 C307.37068121 481.142399 311.65188571 481.1390814 315.93346596 481.15779495 C319.8637253 481.17475091 323.79325283 481.16804777 327.72346606 481.14357816 C329.13452065 481.13874344 330.54563601 481.14207559 331.95663909 481.1550656 C349.25546171 481.30265138 364.24667335 476.20960463 377.03881836 464.32043457 C389.32002808 451.31421604 392.91755567 435.80211252 392.79675293 418.35874939 C392.80137382 416.88337166 392.80773463 415.40799856 392.81566191 413.93263489 C392.83221542 409.91887384 392.8241734 405.90549779 392.81171703 401.89173615 C392.80261105 397.54742773 392.81666354 393.20318233 392.82763672 388.85888672 C392.84536723 380.36466733 392.84160656 371.87058981 392.82998616 363.376365 C392.8209311 356.46985739 392.81973677 349.56338937 392.82408142 342.65687752 C392.82500082 341.17914696 392.82500082 341.17914696 392.82593879 339.67156326 C392.82721777 337.66989023 392.82851462 335.66821721 392.82982916 333.66654421 C392.84121878 314.92368606 392.82814636 296.18090634 392.80662769 277.43806107 C392.7887554 261.37415479 392.79186505 245.31036415 392.81030273 229.24645996 C392.83173325 210.5664424 392.84012322 191.88649345 392.82785368 173.2064653 C392.82657956 171.21270217 392.82532207 169.21893902 392.82408142 167.22517586 C392.82346432 166.24434758 392.82284722 165.2635193 392.82221141 164.25296895 C392.81876527 157.35844784 392.82457092 150.46397044 392.83399963 143.5694561 C392.84524514 135.16213272 392.84212595 126.75495864 392.82087666 118.34765225 C392.81040092 114.06242207 392.80618473 109.77744035 392.81947327 105.4922123 C392.83147542 101.56223609 392.82470738 97.63273645 392.80356306 93.7028029 C392.79912989 92.28846851 392.80128846 90.87409306 392.81106621 89.45978551 C392.91732103 72.80019398 388.13461334 58.45071752 376.60131836 46.19543457 C363.32347296 33.71866582 347.97926364 29.87645294 330.13963318 30 C328.66425545 29.99537911 327.18888235 29.9890183 325.71351868 29.98109102 C321.69975763 29.96453751 317.68638158 29.97257953 313.67261994 29.9850359 C309.32831152 29.99414188 304.98406612 29.98008939 300.63977051 29.96911621 C292.14555112 29.95138569 283.65147359 29.95514637 275.15724879 29.96676677 C268.25074118 29.97582183 261.34427316 29.97701616 254.43776131 29.97267151 C253.4526076 29.97205858 252.46745389 29.97144564 251.45244705 29.97081414 C249.45077402 29.96953516 247.449101 29.96823831 245.447428 29.96692377 C226.70456985 29.95553415 207.96179013 29.96860657 189.21894486 29.99012524 C173.15503858 30.00799753 157.09124794 30.00488788 141.02734375 29.9864502 C122.34732619 29.96501968 103.66737723 29.95662971 84.98734909 29.96889925 C82.99358595 29.97017337 80.99982281 29.97143086 79.00605965 29.97267151 C78.02523137 29.97328861 77.04440309 29.97390571 76.03385274 29.97454152 C69.13933163 29.97798766 62.24485423 29.97218201 55.35033989 29.9627533 C46.94301651 29.95150779 38.53584242 29.95462698 30.12853604 29.97587627 C25.84330586 29.98635201 21.55832414 29.9905682 17.27309608 29.97727966 C13.34311988 29.96527751 9.41362024 29.97204555 5.48368669 29.99318987 C4.0693523 29.99762304 2.65497685 29.99546447 1.2406693 29.98568672 C-18.20467892 29.86166435 -34.29083028 36.83614975 -46.75415039 51.99230957 Z " fill="#418CFE" transform="translate(88.711181640625,0.4920654296875)"/>
<path d="M0 0 C4.04544334 3.0142519 6.63467824 5.45443223 7.6015625 10.5625 C7.90997079 15.62688876 6.95858064 19.33468095 4.875 23.9375 C-3.98759143 43.65173038 -2.83211776 68.05305705 4.4375 88.0625 C9.16854687 99.45362179 14.9546502 109.17620211 23.1875 118.375 C23.71601563 118.99761719 24.24453125 119.62023437 24.7890625 120.26171875 C38.57219487 135.42316436 60.41199755 144.29324232 80.49023438 145.51513672 C95.39790256 146.14623219 108.7463878 144.06047796 122.8125 139.125 C127.64523363 137.45187429 131.09099062 136.59756637 136.1875 137.375 C140.71549727 139.60248253 144.30608084 142.61611624 146.1875 147.375 C148.25933715 171.40831091 133.32464712 198.9835672 118.28515625 216.87109375 C107.82621001 228.86379053 96.81752032 239.10902985 83.1875 247.375 C82.30191406 247.92293213 82.30191406 247.92293213 81.3984375 248.48193359 C53.57374745 265.42785609 17.44770719 271.57638509 -14.3671875 264.28125 C-15.50414062 263.9821875 -16.64109375 263.683125 -17.8125 263.375 C-18.97007812 263.0965625 -20.12765625 262.818125 -21.3203125 262.53125 C-55.29693824 253.71404959 -85.01352528 231.19752868 -103.00708008 201.19555664 C-107.26422432 193.84556865 -110.7602488 186.29418971 -113.8125 178.375 C-114.28429687 177.17746094 -114.75609375 175.97992188 -115.2421875 174.74609375 C-126.62311061 143.53273363 -124.540674 106.4926016 -110.8125 76.375 C-103.98866786 61.78741394 -94.94079935 49.00561841 -83.8125 37.375 C-83.090625 36.57835937 -82.36875 35.78171875 -81.625 34.9609375 C-66.86862092 19.25735841 -22.85396139 -11.57223893 0 0 Z " fill="#428CFD" transform="translate(243.8125,62.625)"/>
<path d="M0 0 C1.5826178 -0.00271326 3.16523434 -0.00627607 4.74784851 -0.01062012 C9.028866 -0.01970729 13.30978667 -0.01621486 17.59080577 -0.00986195 C22.08158161 -0.00478202 26.57234942 -0.00949901 31.06312561 -0.01263428 C38.60427328 -0.0162685 46.14538173 -0.0114895 53.68652344 -0.00195312 C62.39000976 0.00892642 71.09340234 0.00540728 79.79688638 -0.00560594 C87.28418335 -0.01469904 94.77145218 -0.01595408 102.25875288 -0.0107286 C106.72409669 -0.00761951 111.18939653 -0.00717022 115.65473747 -0.01380157 C119.85482582 -0.01960374 124.05479402 -0.01552586 128.25486946 -0.00401306 C129.79108608 -0.00138161 131.32731291 -0.0021055 132.86352539 -0.00653839 C149.04224184 -0.04889843 162.28891479 2.54024578 174.24243164 14.07128906 C183.59623176 24.09177472 186.85360648 35.32504523 186.60961914 48.80175781 C185.80160024 60.15249949 180.28901163 71.54796152 171.96899414 79.33691406 C161.9441004 86.73158831 151.93081523 90.36759358 139.44561768 90.39923096 C138.78586244 90.40220208 138.12610721 90.4051732 137.4463594 90.40823436 C135.25499788 90.41684503 133.06369149 90.41842307 130.87231445 90.41992188 C129.29308965 90.42455543 127.71386597 90.42958081 126.13464355 90.43496704 C121.85759679 90.44804043 117.58056569 90.45452596 113.30350208 90.4589777 C110.62707372 90.46191634 107.95064956 90.4660226 105.27422333 90.47048187 C96.88769243 90.48414287 88.50117123 90.49381661 80.11462998 90.49768376 C70.45676202 90.50216258 60.79903571 90.51970816 51.14121079 90.54868436 C43.6598527 90.57034613 36.17853433 90.58039042 28.69714522 90.58172488 C24.23615417 90.5827696 19.77529653 90.58860626 15.31433868 90.60654449 C11.11505199 90.62310339 6.91599791 90.62514304 2.71669006 90.61640549 C1.18291854 90.61563931 -0.35086591 90.61992203 -1.88460541 90.62986374 C-17.62637458 90.72584913 -29.72544697 87.85346847 -41.51147461 76.88378906 C-45.04385907 73.11478554 -47.39708228 68.88576879 -49.63647461 64.25878906 C-49.94584961 63.63746094 -50.25522461 63.01613281 -50.57397461 62.37597656 C-55.53982591 51.72804541 -54.66937492 39.22941863 -50.95678711 28.36425781 C-46.09871095 16.93771774 -37.33482888 8.66687337 -26.28881836 3.26660156 C-17.56089979 -0.04975041 -9.21001927 -0.02653814 0 0 Z " fill="#418CFD" transform="translate(189.636474609375,360.7412109375)"/>
<path d="M0 0 C-0.16081055 0.70616455 -0.32162109 1.4123291 -0.48730469 2.13989258 C-5.63742906 30.87022923 2.40787787 63.15503652 18.72265625 87.1015625 C37.47475689 113.46817151 64.05915792 131.52432243 96 138 C101.17648449 138.86908575 106.1133417 139.13463664 111.33984375 139.09765625 C112.10680069 139.0962413 112.87375763 139.09482635 113.66395569 139.09336853 C116.0885119 139.08781766 118.51297219 139.07527463 120.9375 139.0625 C122.59179553 139.05747864 124.24609253 139.05291685 125.90039062 139.04882812 C129.93363012 139.03786438 133.96679886 139.02063424 138 139 C136.53037333 143.62643802 134.69807524 147.56060212 132.0625 151.625 C131.6698999 152.23110107 131.2772998 152.83720215 130.87280273 153.46166992 C115.47721138 176.5384896 91.19213055 192.99035829 64.01953125 198.6171875 C35.45691088 203.50598302 6.4712589 198.3824761 -17.44921875 181.6484375 C-38.89653706 165.98554828 -53.60960384 144.83065397 -60 119 C-60.22429687 118.13375 -60.44859375 117.2675 -60.6796875 116.375 C-66.51507588 88.87673147 -60.05304907 60.39024772 -45.27685547 36.89746094 C-41.66354626 31.52793146 -37.37882243 26.74876903 -33 22 C-32.41863281 21.33742188 -31.83726562 20.67484375 -31.23828125 19.9921875 C-24.55353481 12.75178203 -10.13082561 0 0 0 Z " fill="#A3C1F7" transform="translate(214,99)"/>
<path d="M0 0 C1.08366852 -0.00058411 2.16733704 -0.00116821 3.28384399 -0.00177002 C6.84979785 0.00100675 10.41490585 0.03208098 13.98071289 0.06347656 C16.45935103 0.07094036 18.93799508 0.07663264 21.41664124 0.08062744 C27.9285624 0.09587263 34.44012459 0.13514554 40.9519043 0.17944336 C47.60141222 0.22259199 54.2510249 0.23864357 60.90063477 0.25878906 C73.93919904 0.30164028 86.97751496 0.36910571 100.01586914 0.45410156 C99.8536084 1.52789062 99.69134766 2.60167969 99.52416992 3.70800781 C98.98979585 7.64625745 98.86808605 11.48984311 98.89086914 15.45410156 C98.88700195 16.12699219 98.88313477 16.79988281 98.87915039 17.49316406 C98.88766251 21.90244385 99.35804198 26.10081435 100.01586914 30.45410156 C85.68153397 30.57109753 71.34727323 30.65883616 57.01255798 30.71316242 C50.35608066 30.73923853 43.70000978 30.77460114 37.04370117 30.83129883 C30.61813202 30.88568762 24.19287145 30.91553711 17.76708984 30.92848778 C15.31749617 30.93771515 12.86791909 30.95573414 10.41845703 30.98275185 C6.98311066 31.01913157 3.54903388 31.02404291 0.11352539 31.02172852 C-0.89564438 31.0397049 -1.90481415 31.05768127 -2.94456482 31.07620239 C-9.41142478 31.02916504 -14.09130544 29.86941036 -18.98413086 25.45410156 C-21.76950309 20.75378593 -22.66203772 16.87735643 -21.98413086 11.45410156 C-20.23315889 6.50343677 -17.81687922 3.90220694 -13.16273308 1.31621552 C-8.91084245 -0.36633773 -4.51199294 -0.06406959 0 0 Z " fill="#FEFEFE" transform="translate(187.984130859375,390.5458984375)"/>
<path d="M0 0 C4.36492736 2.40706674 5.93942071 4.83284673 7.8125 9.4375 C8.54520346 14.47483626 7.62027557 18.24512573 5.20703125 22.63671875 C1.9113554 26.89247944 -2.54684459 28.17382324 -7.6875 29 C-12.37661747 28.24639184 -15.64727219 26.60297396 -19.1875 23.4375 C-21.97287223 18.73718437 -22.86540686 14.86075487 -22.1875 9.4375 C-20.44294414 4.504976 -17.73316107 1.40475576 -13.0390625 -0.90234375 C-8.34602817 -2.57559861 -4.45447532 -1.90552555 0 0 Z " fill="#A2C1F7" transform="translate(338.1875,392.5625)"/>
</svg>
